<?xml version="1.0" encoding="UTF-8"?>
<svg id="Layer_1" xmlns="http://www.w3.org/2000/svg" version="1.1" viewBox="0 0 100 100">
  <!-- Generator: Adobe Illustrator 30.3.0, SVG Export Plug-In . SVG Version: 2.1.3 Build 182)  -->
  <defs>
    <style>
      .st0 {
        fill: #c8f060;
      }

      .st1 {
        fill: #f0ede8;
      }

      .st2 {
        isolation: isolate;
      }

      .st3 {
        fill: #0d0d0f;
      }
    </style>
  </defs>
  <rect class="st3" y="0" width="100" height="100" rx="20" ry="20"/>
  <g class="st2">
    <path class="st1" d="M19.19,72.68c-2.19,0-3.87-.42-5.05-1.27-1.18-.85-1.77-1.98-1.77-3.41,0-1.25.44-2.21,1.3-2.88s1.88-1,3.04-1,2.18.26,3.08.77c.89.51,1.72,1.39,2.48,2.64l1.2,2.07c.22.31.5.47.84.47s.57-.2.7-.6c.27-.89.46-2.2.57-3.91.11-1.72.17-3.8.17-6.25,0-2.81-.07-6.42-.2-10.84-.13-4.41-.27-9.86-.4-16.32,0-1.92-.71-3.12-2.14-3.61l-1.54-.54v-.67h17.53v.67l-1.47.54c-.8.31-1.35.73-1.64,1.24-.29.51-.43,1.24-.43,2.17v13.25c0,4.37-.2,7.98-.6,10.84-.4,2.85-1.05,5.33-1.94,7.43-1.12,2.99-2.93,5.27-5.45,6.86-2.52,1.58-5.27,2.37-8.26,2.37Z"/>
    <path class="st1" d="M41.53,71.47v-.67l1.2-.47c.89-.36,1.5-.8,1.84-1.34s.5-1.25.5-2.14V31.94c0-.94-.17-1.67-.5-2.21s-.95-.96-1.84-1.27l-1.2-.47v-.67h19.2c5.44,0,9.37.99,11.77,2.98,2.41,1.98,3.61,4.49,3.61,7.53,0,2.27-.88,4.34-2.64,6.19-1.76,1.85-4.78,3.16-9.06,3.91,4.9.54,8.5,1.82,10.77,3.85,2.27,2.03,3.41,4.49,3.41,7.39,0,1.43-.31,2.87-.94,4.31-.62,1.45-1.68,2.78-3.18,3.98-1.5,1.2-3.54,2.17-6.12,2.91-2.59.74-5.87,1.1-9.83,1.1h-16.99ZM54.98,47.86h2.88c2.99,0,5.14-.69,6.46-2.07,1.31-1.38,1.97-3.79,1.97-7.22s-.6-6.11-1.81-7.63c-1.2-1.52-3.17-2.27-5.89-2.27h-3.61v19.2ZM54.98,70.13h3.34c3.34,0,5.83-.89,7.46-2.68,1.63-1.78,2.44-4.57,2.44-8.36,0-3.57-.78-6.11-2.34-7.63-1.56-1.52-4.13-2.27-7.69-2.27h-3.21v20.94Z"/>
    <path class="st0" d="M85.88,72.48c-1.61,0-2.97-.56-4.08-1.67-1.12-1.11-1.67-2.45-1.67-4.01s.56-2.92,1.67-4.08c1.11-1.16,2.47-1.74,4.08-1.74s2.97.58,4.08,1.74c1.11,1.16,1.67,2.52,1.67,4.08s-.56,2.9-1.67,4.01c-1.12,1.11-2.47,1.67-4.08,1.67Z"/>
  </g>
</svg>