<?xml version="1.0" encoding="UTF-8"?>
<svg id="Layer_1" xmlns="http://www.w3.org/2000/svg" version="1.1" viewBox="0 0 32 32">
  <!-- Generator: Adobe Illustrator 30.3.0, SVG Export Plug-In . SVG Version: 2.1.3 Build 182)  -->
  <defs>
    <style>
      .st0 {
        fill: #c8f060;
      }
    </style>
  </defs>
  <path class="st0" d="M22.4,32h-6.4c-2.16,0-4.25-.42-6.23-1.26-1.91-.81-3.62-1.96-5.09-3.43-1.47-1.47-2.62-3.18-3.43-5.09-.83-1.97-1.26-4.07-1.26-6.23s.42-4.25,1.26-6.23c.81-1.91,1.96-3.62,3.43-5.09,1.47-1.47,3.18-2.62,5.09-3.43,1.97-.83,4.07-1.26,6.23-1.26s4.25.42,6.23,1.26c1.91.81,3.62,1.96,5.09,3.43,1.47,1.47,2.62,3.18,3.43,5.09.83,1.97,1.26,4.07,1.26,6.23v2.4c0,3.09-2.51,5.6-5.6,5.6-1.92,0-3.63-.98-4.63-2.46-1.46,1.52-3.5,2.46-5.77,2.46-4.41,0-8-3.59-8-8s3.59-8,8-8,8,3.59,8,8v2.4c0,1.32,1.08,2.4,2.4,2.4s2.4-1.08,2.4-2.4v-2.4c0-3.42-1.33-6.63-3.75-9.05-2.42-2.42-5.63-3.75-9.05-3.75s-6.63,1.33-9.05,3.75c-2.42,2.42-3.75,5.63-3.75,9.05s1.33,6.63,3.75,9.05c2.42,2.42,5.63,3.75,9.05,3.75h6.4c.88,0,1.6.72,1.6,1.6s-.72,1.6-1.6,1.6ZM16,11.2c-2.65,0-4.8,2.15-4.8,4.8s2.15,4.8,4.8,4.8,4.8-2.15,4.8-4.8-2.15-4.8-4.8-4.8Z"/>
</svg>