<?xml version="1.0" encoding="UTF-8"?>
<svg id="Layer_1" xmlns="http://www.w3.org/2000/svg" version="1.1" viewBox="0 0 32 32">
  <!-- Generator: Adobe Illustrator 30.3.0, SVG Export Plug-In . SVG Version: 2.1.3 Build 182)  -->
  <defs>
    <style>
      .st0 {
        fill: #c8f060;
        fill-rule: evenodd;
      }
    </style>
  </defs>
  <path class="st0" d="M28.44,0H3.56C1.59,0,0,1.59,0,3.56v24.89c0,1.96,1.59,3.56,3.56,3.56h24.89c1.96,0,3.56-1.59,3.56-3.56V3.56c0-1.96-1.59-3.56-3.56-3.56ZM9.68,27.56h-4.77v-15.41h4.77v15.41ZM7.27,10.13c-1.56,0-2.82-1.27-2.82-2.84s1.26-2.84,2.82-2.84,2.82,1.27,2.82,2.84-1.26,2.84-2.82,2.84ZM27.56,27.56h-4.75v-8.09c0-2.22-.84-3.46-2.6-3.46-1.91,0-2.91,1.29-2.91,3.46v8.09h-4.58v-15.41h4.58v2.08s1.38-2.55,4.65-2.55,5.61,2,5.61,6.12v9.76Z"/>
</svg>