<?xml version="1.0" encoding="UTF-8"?>
<svg id="Layer_1" xmlns="http://www.w3.org/2000/svg" version="1.1" viewBox="0 0 32 32">
  <!-- Generator: Adobe Illustrator 30.3.0, SVG Export Plug-In . SVG Version: 2.1.3 Build 182)  -->
  <defs>
    <style>
      .st0 {
        fill: #c8f060;
        fill-rule: evenodd;
      }
    </style>
  </defs>
  <path id="Layer" class="st0" d="M16,32C7.15,32,0,24.85,0,16S7.15,0,16,0s16,7.15,16,16-7.15,16-16,16h0ZM3.57,19.55c0-.14-.11-.25-.25-.25s-.25.11-.25.25.11.25.25.25.25-.11.25-.25ZM3.57,16.19c0-.14-.11-.25-.25-.25s-.25.11-.25.25.11.25.25.25.25-.11.25-.25ZM3.57,12.83c0-.14-.11-.25-.25-.25s-.25.11-.25.25.11.25.25.25.25-.11.25-.25ZM5.42,19.55c0-.21-.17-.38-.38-.38s-.38.17-.38.38.17.38.38.38.38-.17.38-.38ZM5.42,16.19c0-.21-.17-.38-.38-.38s-.38.17-.38.38.17.38.38.38.38-.17.38-.38ZM5.42,12.83c0-.21-.17-.38-.38-.38s-.38.17-.38.38.17.38.38.38.38-.17.38-.38ZM7.57,19.55c0-.28-.22-.5-.5-.5s-.5.22-.5.5.22.5.5.5.5-.22.5-.5ZM7.57,16.19c0-.28-.22-.5-.5-.5s-.5.22-.5.5.22.5.5.5.5-.22.5-.5ZM7.57,12.83c0-.28-.22-.5-.5-.5s-.5.22-.5.5.22.5.5.5.5-.22.5-.5ZM9.81,19.55c0-.35-.28-.62-.62-.62s-.62.28-.62.62.28.63.62.63.62-.28.62-.63ZM9.81,16.19c0-.35-.28-.62-.62-.62s-.62.28-.62.62.28.63.62.63.62-.28.62-.63ZM9.81,12.83c0-.35-.28-.63-.62-.63s-.62.28-.62.63.28.63.62.63.62-.28.62-.63ZM12.43,19.55c0-.42-.34-.75-.75-.75s-.75.34-.75.75.34.75.75.75.75-.34.75-.75ZM12.43,16.19c0-.41-.34-.75-.75-.75s-.75.34-.75.75.34.75.75.75.75-.34.75-.75ZM12.43,12.83c0-.42-.34-.75-.75-.75s-.75.34-.75.75.34.75.75.75.75-.34.75-.75ZM15.16,19.55c0-.48-.39-.87-.88-.87s-.88.39-.88.87.39.87.88.87.88-.39.88-.87ZM15.16,16.19c0-.48-.39-.87-.88-.87s-.88.39-.88.87.39.87.88.87.88-.39.88-.87ZM15.16,12.83c0-.48-.39-.87-.88-.87s-.88.39-.88.87.39.87.88.87.88-.39.88-.87ZM18.38,26.28c0-.55-.45-1-1-1s-1,.45-1,1,.45,1,1,1,1-.45,1-1ZM18.38,22.91c0-.55-.45-1-1-1s-1,.45-1,1,.45,1,1,1,1-.45,1-1ZM18.38,19.55c0-.55-.45-1-1-1s-1,.45-1,1,.45,1,1,1,1-.45,1-1ZM18.38,16.19c0-.55-.45-1-1-1s-1,.45-1,1,.45,1,1,1,1-.45,1-1ZM18.38,12.83c0-.55-.45-1-1-1s-1,.45-1,1,.45,1,1,1,1-.45,1-1ZM18.38,9.47c0-.55-.45-1-1-1s-1,.45-1,1,.45,1,1,1,1-.45,1-1ZM18.38,6.1c0-.55-.45-1-1-1s-1,.45-1,1,.45,1,1,1,1-.45,1-1ZM21.7,22.91c0-.61-.49-1.1-1.1-1.1s-1.1.49-1.1,1.1.49,1.1,1.1,1.1,1.1-.49,1.1-1.1ZM21.7,19.55c0-.61-.49-1.1-1.1-1.1s-1.1.49-1.1,1.1.49,1.1,1.1,1.1,1.1-.49,1.1-1.1ZM21.7,16.19c0-.61-.49-1.1-1.1-1.1s-1.1.49-1.1,1.1.49,1.1,1.1,1.1,1.1-.49,1.1-1.1ZM21.7,12.83c0-.61-.49-1.1-1.1-1.1s-1.1.49-1.1,1.1.49,1.1,1.1,1.1,1.1-.49,1.1-1.1ZM21.7,9.46c0-.61-.49-1.1-1.1-1.1s-1.1.49-1.1,1.1.49,1.1,1.1,1.1,1.1-.49,1.1-1.1h0ZM25.28,19.56c0-.68-.55-1.24-1.24-1.24s-1.24.55-1.24,1.24.55,1.24,1.24,1.24,1.24-.55,1.24-1.24h0ZM25.28,16.2c0-.69-.55-1.24-1.24-1.24s-1.24.55-1.24,1.24.55,1.24,1.24,1.24,1.24-.55,1.24-1.24ZM25.28,12.84c0-.69-.55-1.24-1.24-1.24s-1.24.55-1.24,1.24.55,1.24,1.24,1.24,1.24-.55,1.24-1.24ZM28.91,16.22c0-.75-.61-1.36-1.36-1.36s-1.36.61-1.36,1.36.61,1.36,1.36,1.36,1.36-.61,1.36-1.36Z"/>
</svg>